<svg id="visual" viewBox="0 0 2880 1800" width="2880" height="1800" xmlns="http://www.w3.org/2000/svg" xmlns:xlink="http://www.w3.org/1999/xlink" version="1.1"><rect x="0" y="0" width="2880" height="1800" fill="#1D1D1D"></rect><path d="M0 1275L68.5 1285.2C137 1295.3 274 1315.7 411.2 1279C548.3 1242.3 685.7 1148.7 822.8 1118C960 1087.3 1097 1119.7 1234.2 1128.8C1371.3 1138 1508.7 1124 1645.8 1129.3C1783 1134.7 1920 1159.3 2057.2 1149.8C2194.3 1140.3 2331.7 1096.7 2468.8 1077.7C2606 1058.7 2743 1064.3 2811.5 1067.2L2880 1070L2880 1801L2811.5 1801C2743 1801 2606 1801 2468.8 1801C2331.7 1801 2194.3 1801 2057.2 1801C1920 1801 1783 1801 1645.8 1801C1508.7 1801 1371.3 1801 1234.2 1801C1097 1801 960 1801 822.8 1801C685.7 1801 548.3 1801 411.2 1801C274 1801 137 1801 68.5 1801L0 1801Z" fill="#0166ff"></path><path d="M0 1291L68.5 1305.5C137 1320 274 1349 411.2 1347.8C548.3 1346.7 685.7 1315.3 822.8 1305C960 1294.7 1097 1305.3 1234.2 1325.7C1371.3 1346 1508.7 1376 1645.8 1394.2C1783 1412.3 1920 1418.7 2057.2 1398.7C2194.3 1378.7 2331.7 1332.3 2468.8 1311.8C2606 1291.3 2743 1296.7 2811.5 1299.3L2880 1302L2880 1801L2811.5 1801C2743 1801 2606 1801 2468.8 1801C2331.7 1801 2194.3 1801 2057.2 1801C1920 1801 1783 1801 1645.8 1801C1508.7 1801 1371.3 1801 1234.2 1801C1097 1801 960 1801 822.8 1801C685.7 1801 548.3 1801 411.2 1801C274 1801 137 1801 68.5 1801L0 1801Z" fill="#6a7ef3"></path><path d="M0 1384L68.5 1389C137 1394 274 1404 411.2 1396C548.3 1388 685.7 1362 822.8 1348C960 1334 1097 1332 1234.2 1338C1371.3 1344 1508.7 1358 1645.8 1360.3C1783 1362.7 1920 1353.3 2057.2 1365.7C2194.3 1378 2331.7 1412 2468.8 1416.2C2606 1420.3 2743 1394.7 2811.5 1381.8L2880 1369L2880 1801L2811.5 1801C2743 1801 2606 1801 2468.8 1801C2331.7 1801 2194.3 1801 2057.2 1801C1920 1801 1783 1801 1645.8 1801C1508.7 1801 1371.3 1801 1234.2 1801C1097 1801 960 1801 822.8 1801C685.7 1801 548.3 1801 411.2 1801C274 1801 137 1801 68.5 1801L0 1801Z" fill="#9397e7"></path><path d="M0 1463L68.5 1471.7C137 1480.3 274 1497.7 411.2 1514.8C548.3 1532 685.7 1549 822.8 1558.3C960 1567.7 1097 1569.3 1234.2 1560.8C1371.3 1552.3 1508.7 1533.7 1645.8 1512.5C1783 1491.3 1920 1467.7 2057.2 1486.5C2194.3 1505.3 2331.7 1566.7 2468.8 1589.8C2606 1613 2743 1598 2811.5 1590.5L2880 1583L2880 1801L2811.5 1801C2743 1801 2606 1801 2468.8 1801C2331.7 1801 2194.3 1801 2057.2 1801C1920 1801 1783 1801 1645.8 1801C1508.7 1801 1371.3 1801 1234.2 1801C1097 1801 960 1801 822.8 1801C685.7 1801 548.3 1801 411.2 1801C274 1801 137 1801 68.5 1801L0 1801Z" fill="#b2b1da"></path><path d="M0 1668L68.5 1669.8C137 1671.7 274 1675.3 411.2 1659.8C548.3 1644.3 685.7 1609.7 822.8 1599.5C960 1589.3 1097 1603.7 1234.2 1610.3C1371.3 1617 1508.7 1616 1645.8 1626.3C1783 1636.7 1920 1658.3 2057.2 1664.5C2194.3 1670.7 2331.7 1661.3 2468.8 1647.2C2606 1633 2743 1614 2811.5 1604.5L2880 1595L2880 1801L2811.5 1801C2743 1801 2606 1801 2468.8 1801C2331.7 1801 2194.3 1801 2057.2 1801C1920 1801 1783 1801 1645.8 1801C1508.7 1801 1371.3 1801 1234.2 1801C1097 1801 960 1801 822.8 1801C685.7 1801 548.3 1801 411.2 1801C274 1801 137 1801 68.5 1801L0 1801Z" fill="#cccccc"></path></svg>