<svg id="visual" viewBox="0 0 900 675" width="900" height="675" xmlns="http://www.w3.org/2000/svg" xmlns:xlink="http://www.w3.org/1999/xlink" version="1.1"><rect x="0" y="0" width="900" height="675" fill="#1B6C84"></rect><path d="M0 444L12.5 456C25 468 50 492 75 499.2C100 506.3 125 496.7 150 483.7C175 470.7 200 454.3 225 450.3C250 446.3 275 454.7 300 475.5C325 496.3 350 529.7 375 536.7C400 543.7 425 524.3 450 513.2C475 502 500 499 525 500.3C550 501.7 575 507.3 600 501.5C625 495.7 650 478.3 675 471.8C700 465.3 725 469.7 750 481.2C775 492.7 800 511.3 825 510C850 508.7 875 487.3 887.5 476.7L900 466L900 676L887.5 676C875 676 850 676 825 676C800 676 775 676 750 676C725 676 700 676 675 676C650 676 625 676 600 676C575 676 550 676 525 676C500 676 475 676 450 676C425 676 400 676 375 676C350 676 325 676 300 676C275 676 250 676 225 676C200 676 175 676 150 676C125 676 100 676 75 676C50 676 25 676 12.5 676L0 676Z" fill="#011220" stroke-linecap="round" stroke-linejoin="miter"></path></svg>